<?xml version="1.0" encoding="UTF-8" standalone="no"?>
<!-- Created with Inkscape (http://www.inkscape.org/) -->

<svg
   version="1.1"
   id="svg9"
   width="1920"
   height="781"
   viewBox="0 0 1920 781"
   sodipodi:docname="img0.svg"
   inkscape:version="1.2 (dc2aedaf03, 2022-05-15)"
   xmlns:inkscape="http://www.inkscape.org/namespaces/inkscape"
   xmlns:sodipodi="http://sodipodi.sourceforge.net/DTD/sodipodi-0.dtd"
   xmlns="http://www.w3.org/2000/svg"
   xmlns:svg="http://www.w3.org/2000/svg">
  <defs
     id="defs13" />
  <sodipodi:namedview
     id="namedview11"
     pagecolor="#ffffff"
     bordercolor="#000000"
     borderopacity="0.25"
     inkscape:showpageshadow="2"
     inkscape:pageopacity="0.0"
     inkscape:pagecheckerboard="0"
     inkscape:deskcolor="#d1d1d1"
     showgrid="false"
     inkscape:zoom="0.47158032"
     inkscape:cx="921.37008"
     inkscape:cy="371.09267"
     inkscape:window-width="1366"
     inkscape:window-height="697"
     inkscape:window-x="-8"
     inkscape:window-y="-8"
     inkscape:window-maximized="1"
     inkscape:current-layer="g15" />
  <g
     inkscape:groupmode="layer"
     inkscape:label="Image"
     id="g15">
    <path
       style="fill:#006eff"
       d="m 674.1427,768.5893 h -96.9723 l -0.5172,-1.3477 -0.5172,-1.3477 3.563,-27.9023 3.5629,-27.9023 1.2142,-5.8882 1.2143,-5.8881 -4.4786,-3.5927 -4.4787,-3.5926 -9.8683,-9.5192 -9.8683,-9.5192 -17.1317,-20.48905 -17.1317,-20.48905 -10,-10.5144 -10,-10.5144 -3.2911,-5.14814 -3.2911,-5.14814 -1.9589,-5.57342 -1.9589,-5.57342 v -6.98747 -6.98747 l 2.1538,-5.75653 2.1538,-5.75652 5.1272,-5.1272 5.1272,-5.1272 5.7565,-2.15379 5.7566,-2.15379 h 5.8059 5.8059 l 5.6397,1.94032 5.6396,1.94031 4.7669,3.23618 4.7669,3.23618 8.6436,8.40028 8.6435,8.40029 0.754,-1.22001 0.754,-1.22 1.2133,-69.10678 1.2134,-69.10677 1.5986,-4.26098 1.5987,-4.26099 3.0096,-4.37434 3.0096,-4.37434 4.7356,-3.13674 4.7357,-3.13674 4.9767,-1.47794 4.9767,-1.47793 4.0685,0.0258 4.0685,0.0258 6.7554,2.30214 6.7554,2.30213 0.4946,-0.49462 0.4946,-0.49461 v -5.29582 -5.29582 l 2.0334,-5.43461 2.0333,-5.43461 3.9958,-4.53938 3.9957,-4.53939 6.1306,-3.06352 6.1307,-3.06352 h 7.3027 7.3028 l 5.5491,2.07617 5.549,2.07617 4.7749,4.67383 4.7748,4.67383 2.3602,5 2.3602,5 0.4907,7.34033 0.4907,7.34033 2.1127,-0.50837 2.1127,-0.50838 4.5,-1.68174 4.5,-1.68175 6.5,0.45576 6.5,0.45575 5.2018,2.24644 5.2018,2.24644 4.8923,5.17286 4.8923,5.17285 2.1559,5.76225 2.1559,5.76226 v 6.46248 6.46249 l 1.25,-0.0151 1.25,-0.015 4,-1.44105 4,-1.44105 6.7125,-0.0439 6.7125,-0.0439 5.5085,2.06099 5.5085,2.06099 4.5979,4.46867 4.5979,4.46867 2.6214,5.72034 2.6214,5.72034 0.3523,8 0.3523,8 -1.4532,76.5 -1.4532,76.5 -1.7709,7 -1.771,7 -10.9225,21.50002 -10.9225,21.5 1.1324,5.5 1.1323,5.5 4.4136,29.4395 4.4136,29.4395 -0.5009,0.8105 -0.5009,0.8105 z m 0.046,-62 h 73.2407 l -0.6541,-5.75 -0.6541,-5.75 9.8714,-20.0928 9.8715,-20.09287 2.8387,-8.40716 2.8387,-8.40716 0.7418,-38 0.7417,-38 0.354,-44 0.354,-44 -1.7489,-3.19831 -1.749,-3.1983 -3.5988,-2.74496 -3.5988,-2.74495 -5.6523,-0.34811 -5.6522,-0.3481 -3.9972,2.32159 -3.9971,2.32159 -2.4591,4.45784 -2.4591,4.45785 -0.4055,36.01193 -0.4055,36.01193 -1.0107,1.25 -1.0107,1.25 -5.1275,-0.0153 -5.1276,-0.0153 -1.405,-0.88953 -1.4051,-0.88953 0.6988,-54.34516 0.6987,-54.34515 -2.2937,-4.49193 -2.2937,-4.49193 -3.3617,-2.23372 -3.3618,-2.23372 -3.3882,-0.63564 -3.3883,-0.63564 -3.5214,0.66061 -3.5214,0.66062 -3.6275,3.18505 -3.6276,3.18505 -1.462,3.49905 -1.462,3.49906 -0.4461,52.51657 -0.4461,52.51657 -0.4729,2.29321 -0.4728,2.2932 -7.2201,-0.2932 -7.2201,-0.29324 0.345,-72.25016 0.3449,-72.25015 -2.6381,-4.50153 -2.638,-4.50153 -3.9171,-1.99832 -3.917,-1.99831 h -4.5895 -4.5895 l -2.7003,1.41072 -2.7004,1.41073 -2.6863,2.83927 -2.6864,2.83928 -1.0038,2.6578 -1.0039,2.65779 -0.583,51.34221 -0.5831,51.3422 -0.5867,20.25 -0.5868,20.25 h -7.5533 -7.5534 l 0.645,-54.75 0.6451,-54.75 -1.9032,-4.18386 -1.9032,-4.18386 -3.8285,-2.4989 -3.8285,-2.4989 -3.6848,-0.6663 -3.6848,-0.66631 -3.5906,1.185 -3.5906,1.185 -3.0105,2.53318 -3.0105,2.53318 -1.545,2.98771 -1.545,2.98771 -0.4344,16.64317 -0.4344,16.64318 -1.0272,51.5 -1.0272,51.5 -0.9592,11.89103 -0.9592,11.89102 -1.7483,1.32717 -1.7483,1.32717 -2.9056,0.0318 -2.9056,0.0318 -3.5944,-2.68451 -3.5944,-2.68451 -13.1038,-12.80389 -13.1038,-12.8039 -5.7396,-2.62767 -5.7396,-2.62768 -5.2482,0.43522 -5.2482,0.43522 -3.2749,2.33193 -3.2749,2.33193 -1.8615,4.09893 -1.8615,4.09893 -0.016,4 -0.016,4 1.0213,3.67731 1.0214,3.67731 3.223,4.55772 3.2231,4.55771 24.9747,28.26498 24.9747,28.26497 18.239,18.4505 18.239,18.4505 -0.6061,5.7995 -0.6062,5.7995 h 73.2406 z m 375.4809,38 h -15.3186 l -0.809,-1.25 -0.809,-1.25 -0.5,-63.5 -0.5,-63.49999 -12.9352,-0.28126 -12.9352,-0.28126 -1.3148,-1.09118 -1.3148,-1.09119 V 597.08931 581.8342 l 1.365,-1.13284 1.365,-1.13283 44.885,0.26039 44.885,0.26039 0.276,15.86623 0.276,15.86623 -1.1249,1.35543 -1.125,1.35544 -13.151,0.27833 -13.1511,0.27834 -0.2575,63.40659 -0.2575,63.4066 -1.115,1.3434 -1.1149,1.3434 z m 102.0039,-0.2261 -16.0595,0.2738 -0.6905,-0.6905 -0.6905,-0.6905 v -39.1966 -39.1965 l -6.3631,-9.38679 -6.363,-9.3868 -3.5113,-7 -3.5113,-7 -2.6887,-7.48443 -2.6887,-7.48444 -1.3649,-6.51556 -1.3648,-6.51557 -1.1197,-10.22675 -1.1198,-10.22674 1.0963,-2.0484 1.0963,-2.0484 15.5937,0.27514 15.5938,0.27515 0.7622,1.5 0.7623,1.5 0.9828,10 0.9829,10 3.2195,9.69185 3.2195,9.69185 1.8742,1.69616 1.8743,1.69616 1.4091,-1.16949 1.4092,-1.1695 2.1697,-5.04369 2.1698,-5.0437 1.9491,-7.6209 1.9491,-7.6209 0.6383,-8.30391 0.6383,-8.30391 1.237,-1.02668 1.2371,-1.02668 15.3654,0.27667 15.3654,0.27667 0.3099,7 0.3098,7 -1.6594,10 -1.6594,10 -2.5192,8 -2.5192,8 -4.0087,8 -4.0086,8 -6.1226,8.95392 -6.1226,8.95387 -0.5,40.0461 -0.5,40.0461 z m 70.8281,0.2261 h -15.3314 l -0.4769,-1.25 -0.477,-1.25 0.2584,-81 0.2583,-80.99999 h 32 32 l 5.7181,2.68006 5.718,2.68005 5.0407,4.71494 5.0406,4.71495 3.2413,6.58397 3.2413,6.58398 v 21.54205 21.54205 l -3.2413,6.58398 -3.2413,6.58396 -5.0406,4.715 -5.0407,4.7149 -5.718,2.6441 -5.7181,2.6442 -14,0.3931 -14,0.3931 -1.25,1.0153 -1.25,1.0152 v 30.1775 30.1776 l -1.2,1.2 -1.2,1.2 z m 30.4562,-99.99999 h 10.3247 l 0.9753,-2.5651 0.9752,-2.5651 v -9.8698 -9.8698 l -0.9752,-2.5651 -0.9753,-2.5651 h -10.3247 -10.3248 l -1.2,1.2 -1.2,1.2 v 12.6 12.6 l 1.2,1.2 1.2,1.2 z m 109.5021,99.93309 -23.7269,-0.067 -4,-1.2684 -4,-1.2683 -4,-2.084 -4,-2.084 -4.7005,-4.8307 -4.7005,-4.8308 -2.7995,-6 -2.7995,-6 v -54.021 -54.02105 l 3.2413,-6.58398 3.2413,-6.58397 5.0406,-4.71495 5.0407,-4.71494 5.718,-2.68005 5.7181,-2.68006 25.0769,-0.31107 25.0769,-0.31106 1.0236,1.31106 1.0236,1.31107 5.8105,14.70363 5.8104,14.70363 -1.2702,1.5305 -1.2702,1.53049 -27.1408,0.26588 -27.1407,0.26587 v 14.5 14.5 l 13.4341,0.28031 13.434,0.2803 1.316,1.09214 1.3159,1.09214 v 15.25511 15.2551 l -1.3159,1.0921 -1.316,1.0922 -13.434,0.2803 -13.4341,0.2803 v 14.5 14.5 l 27.2018,0.5 27.2018,0.5 1.227,1.2288 1.227,1.2288 -5.2881,13.7712 -5.2881,13.7712 -1.4137,2.25 -1.4138,2.25 -23.727,-0.067 z m 62.1083,0.067 h -15.2648 l -1.0352,-1.9343 -1.0352,-1.9342 v -78.8746 -78.87463 l 1.2846,-1.75682 1.2846,-1.75682 31.4902,0.31569 31.4901,0.31569 6.6601,3.28057 6.66,3.28058 4.4854,4.98878 4.4853,4.98878 2.0797,4.29599 2.0796,4.29599 1.1036,5.93465 1.1036,5.93466 -0.3811,16.5 -0.3812,16.5 -3.0749,6.54737 -3.0749,6.54732 -3.1473,3.5847 -3.1474,3.5846 v 1.2136 1.2137 l 1.8718,2.6543 1.8717,2.6544 2.546,5.0545 2.546,5.0544 1.674,5.9456 1.674,5.9455 0.5324,20.7479 0.5325,20.7479 -1.2466,1.5021 -1.2467,1.5021 h -15.2551 -15.2551 l -1.0445,-1.2585 -1.0445,-1.2585 -0.3279,-19.9915 -0.328,-19.9915 -2.6723,-5.0635 -2.6723,-5.0634 -4.018,-3.63 -4.0179,-3.63 -3.0101,-1.5565 -3.0101,-1.5566 h -2.0496 -2.0497 v 30.3 30.3 l -1.2,1.2 -1.2,1.2 z m 29.6648,-98.99999 h 8.6177 l 1.721,-1.25837 1.7209,-1.25837 -0.2798,-13.99163 -0.2798,-13.99163 h -11.5 -11.5 l -0.2798,13.99163 -0.2798,13.99163 1.7209,1.25837 1.721,1.25837 z M 244.32344,727.5893 h -96.9723 l -0.5526,-0.894 -0.5525,-0.894 3.9981,-27.856 3.9981,-27.856 1.6281,-6.7394 1.628,-6.73939 -2.4525,-4.7606 -2.4525,-4.7606 -8.0207,-15.58574 -8.0208,-15.58574 -2.2632,-7.91426 -2.2632,-7.91426 -0.8339,-39.5 -0.8339,-39.5 -0.3123,-46 -0.3123,-46 2.7842,-5.28415 2.7841,-5.28415 3.9244,-3.92436 3.9244,-3.92436 3.8232,-1.95046 3.8232,-1.95046 5.4683,-0.99597 5.4682,-0.99597 5.1835,0.83417 5.1835,0.83416 2.0008,1.07078 2.0008,1.07077 h 1.5657 1.5657 v -6.46249 -6.46248 l 2.1465,-5.73694 2.1465,-5.73693 4.5837,-4.90038 4.5837,-4.90039 5.0198,-2.55634 5.0198,-2.55635 7,-0.44954 7,-0.44953 6.2185,2.10568 6.2184,2.10569 h 0.5316 0.5315 l 0.042,-5.75 0.042,-5.75 1.7084,-4.70278 1.7085,-4.70279 3.0867,-4.34484 3.0868,-4.34485 4.854,-3.21521 4.8541,-3.21521 4.0592,-1.13355 4.0592,-1.13355 6.0922,0.0195 6.0923,0.0195 6.1552,2.7623 6.1552,2.76229 3.9315,4.26516 3.9315,4.26515 2.2208,4.34942 2.2209,4.34941 0.4864,6.77514 0.4863,6.77514 0.8131,0.50256 0.8132,0.50256 6.3007,-2.13392 6.3007,-2.13391 6.6425,0.46501 6.6426,0.46501 4.8574,2.34384 4.8575,2.34385 4.6738,4.78582 4.6738,4.78581 2.2505,5.76155 2.2504,5.76154 0.8339,55.5 0.8339,55.5 0.5958,14.25 0.5958,14.25 h 1.0238 1.0237 l 9.7904,-9.39702 9.7904,-9.39702 6.8108,-3.35298 6.8109,-3.35298 h 9.521 9.5211 l 5.3554,2.9663 5.3554,2.9663 3.8612,4.3866 3.8613,4.38661 2.0333,5.43461 2.0334,5.43461 v 6.78098 6.78099 l -1.4865,5.00557 -1.4865,5.00557 -4.0844,6.31923 -4.0843,6.31924 -9.6792,10.1067 -9.6792,10.10674 -17.1316,20.5 -17.1317,20.5 -9.8683,9.51919 -9.8684,9.5192 -4.4391,3.56006 -4.4392,3.56005 1.6967,9.42079 1.6967,9.4207 3.0766,24.3096 3.0766,24.3096 -0.5528,1.4404 -0.5527,1.4404 z m -0.046,-62 h 73.2407 l -0.6062,-5.79947 -0.6062,-5.79948 18.2501,-18.45052 18.25,-18.45052 20.9637,-23.99283 20.9636,-23.99283 6.1785,-6.75799 6.1785,-6.758 2.0715,-5.53669 2.0715,-5.53669 -0.022,-4.21248 -0.022,-4.21249 -1.8615,-4.09893 -1.8615,-4.09893 -3.3011,-2.35061 -3.3012,-2.35062 -5.6032,-0.4053 -5.6032,-0.4053 -4.9622,2.30327 -4.9621,2.30326 -12.5,12.11125 -12.5,12.11124 -4.43,3.69033 -4.43,3.69034 h -2.273 -2.2729 l -2.4298,-1.10707 -2.4297,-1.10706 -0.5929,-4.14294 -0.593,-4.14293 -1.0287,-27.5 -1.0288,-27.5 -0.9169,-48.64748 -0.917,-48.64748 -1.5427,-2.9834 -1.5428,-2.98341 -3.081,-2.59247 -3.081,-2.59248 -3.8584,-1.15603 -3.8585,-1.15602 -3.4847,0.65373 -3.4847,0.65374 -3.3618,2.23372 -3.3617,2.23372 -2.2714,4.49193 -2.2713,4.49193 0.6834,54.75 0.6835,54.75 h -7.1031 -7.1031 l -0.5791,-0.93694 -0.579,-0.93693 -1.0036,-70.72216 -1.0035,-70.72215 -1.8504,-4.18305 -1.8503,-4.18306 -3.3107,-2.3574 -3.3107,-2.3574 -5.6814,-0.41095 -5.6814,-0.41096 -3.7232,1.76679 -3.7232,1.76678 -2.6608,4.02832 -2.6607,4.02831 v 73.0654 73.0654 l -6.3985,0.30157 -6.3984,0.30157 -1.0832,-1.0832 -1.0832,-1.0832 -0.671,-54.32974 -0.671,-54.32974 -1.5081,-2.88863 -1.5081,-2.88863 -2.8393,-2.68638 -2.8392,-2.68638 -2.8151,-1.06362 -2.8151,-1.06362 h -3.4671 -3.467 l -3.2179,1.37112 -3.2178,1.37112 -2.2023,2.39253 -2.2023,2.39252 -1.592,3.81023 -1.592,3.81022 0.7018,54.29122 0.7019,54.29122 -5.6019,0.69991 -5.6018,0.6999 -1.9456,-1.04122 -1.9455,-1.04122 -0.3985,-36.27378 -0.3984,-36.27377 -1.8525,-3.80645 -1.8524,-3.80644 -3.4014,-2.5944 -3.4015,-2.5944 -4.9036,-0.47117 -4.9036,-0.47118 -2.5359,0.63647 -2.5359,0.63647 -3.4148,2.99828 -3.4149,2.99828 -1.5605,3.90011 -1.5605,3.90011 0.9167,68.33716 0.9167,68.33716 0.4959,12.50401 0.4959,12.50401 2.6233,7.99599 2.6233,7.99599 9.9896,20.5 9.9896,20.5 -0.6667,5.75 -0.6666,5.74999 h 73.2406 z m -153.7943,-63.07949 -15.749997,-0.0795 -6,-1.32308 -6,-1.32307 -5.8036,-2.18935 -5.8037,-2.18936 -7.3996,-4.94916 -7.3996,-4.94917 -5.3069,-5.86424 -5.3068,-5.86424 -3.7655,-6.34466 -3.7654,-6.34467 -2.7245,-8 -2.7244,-8 -0.2781,-171.5 -0.2781,-171.5 1.5824,-8 1.5824,-8 4.3894,-9.08838 4.3894,-9.08838 7.093,-7.59517 7.0931,-7.59518 6.4595,-4.07956 6.4596,-4.07957 5.2079,-2.05277 5.2079,-2.05278 5.5458,-1.67941 5.5458,-1.67941 323.472397,-0.50469 323.47236,-0.5047 0.6987,-4.09329 0.6987,-4.09329 1.4818,-3.54627 1.4817,-3.54628 3.6607,-4.052 3.6608,-4.05201 4.5509,-2.20305 4.5509,-2.20305 8.1355,-0.60538 8.1355,-0.60538 0.7862,-6.5 0.7861,-6.5 1.9848,-14.274298 1.9848,-14.27429 1.9142,-8.01456 1.9142,-8.01455 -1.3738,-5.21115 -1.3739,-5.21115 -1.5613,-4.37573 -1.5613,-4.37572 v -4.22639 -4.22639 l 2.27,-3.39789 2.2699,-3.39788 3.4801,-1.74845 3.48,-1.74844 h 3 3 l 3.4801,1.74844 3.4801,1.74845 2.2707,3.39907 2.2707,3.39907 2.9432,9.18782 2.9431,9.18781 0.6158,4.91312 0.6158,4.91311 -2.5899,12.5 -2.5899,12.5 -1.9098,14.824758 -1.9097,14.82476 0.5016,1.3073 0.5017,1.30731 4.0432,0.64654 4.0433,0.64654 3.145,1.58158 3.145,1.58158 3.8325,3.63981 3.8324,3.63982 1.6142,3 1.6142,3 1.1315,5.5 1.1316,5.5 49.4218,0.59445 49.4218,0.59446 6.5,1.68932 6.5,1.68932 8.5,4.16897 8.5,4.16896 9.1216,9.07908 9.1216,9.07909 4.5741,9.46817 4.5742,9.46818 1.5824,8 1.5824,8 -0.2781,171.5 -0.2782,171.5 -2.7244,8 -2.7244,8 -3.7756,6.49271 -3.7756,6.49272 -7.5073,7.50728 -7.5072,7.50729 -6.4928,3.77559 -6.4927,3.77559 -8,2.71189 -8,2.71189 -52.277,0.31213 -52.277,0.31213 0.277,-14.79961 0.277,-14.79961 50,-0.5 50,-0.5 5.8171,-2.34693 5.817,-2.34693 6.2372,-5.83455 6.2371,-5.83456 2.6604,-5.43317 2.6603,-5.43318 1.011,-4.38534 1.011,-4.38534 0.024,-166.0399 0.024,-166.0399 -1.552,-5.9601 -1.552,-5.9601 -2.5967,-4.43185 -2.5967,-4.43184 -4.6013,-4.48162 -4.6013,-4.48161 -6.5,-3.08654 -6.5,-3.08654 -59,-0.5 -59,-0.5 -3.1711,-1.73491 -3.1712,-1.73491 -2.2653,-3.18138 -2.2654,-3.18137 -0.5635,-9.58372 -0.5635,-9.58371 h -17 -17 l -0.5008,9.67781 -0.5009,9.67781 -2.1036,2.82219 -2.1037,2.82219 -3.3955,2 -3.3955,2 -332.99996,0.5 -332.999997,0.5 -6.5,3.08654 -6.5,3.08654 -4.6012,4.48161 -4.6013,4.48162 -2.5967,4.43184 -2.5968,4.43185 -1.552,5.9601 -1.552,5.9601 0.024,166.0399 0.024,166.0399 1.011,4.38534 1.011,4.38534 2.6604,5.43318 2.6604,5.43317 6.2371,5.83456 6.2372,5.83455 5.817,2.29438 5.817,2.29437 15.309297,0.39343 15.3093,0.39342 0.9407,2.47423 0.9407,2.47423 v 12.4349 12.4349 z m 354.25,0.0795 h -24.5 v -0.63888 -0.63888 l 7.2603,-7.61112 7.2603,-7.61112 4.5225,-6.5 4.5225,-6.5 10.3804,-0.28679 10.38046,-0.28678 1.0198,1.01984 1.0198,1.01984 -0.2292,5.26695 -0.2293,5.26694 1.546,8 1.5461,8 2e-4,0.75 10e-5,0.75 z m 576.06336,-72 h -15.3185 l -1.1499,-1.38549 -1.1498,-1.38548 0.2774,-66.86452 0.2774,-66.86451 3.1085,-6.5 3.1084,-6.5 4.3916,-4.3748 4.3915,-4.3748 6.5,-3.1252 6.5,-3.1252 16.0412,-0.3325 16.0411,-0.33249 5.9589,2.21667 5.9588,2.21667 h 3.5 3.5 l 5.9588,-2.21667 5.9589,-2.21667 16.0411,0.33249 16.0412,0.3325 6.5,3.08656 6.5,3.08657 4.5879,4.66377 4.5879,4.66378 2.9121,5.74966 2.9121,5.74966 0.2864,66.5 0.2865,66.5 -0.5555,2.25 -0.5555,2.25 h -15.9219 -15.922 l -0.809,-1.25 -0.809,-1.25 -0.5,-63.5 -0.5,-63.5 -10.4132,-0.28679 -10.4132,-0.28678 -1.0868,1.08634 -1.0868,1.08635 -0.5,63.70044 -0.5,63.70044 h -16.5 -16.5 l -0.2575,-63.40659 -0.2575,-63.40659 -1.1418,-1.37573 -1.1417,-1.37573 -10.6008,0.28232 -10.6007,0.28232 -0.5,63.5 -0.5,63.5 -0.809,1.25 -0.809,1.25 z m 197.6635,-0.0669 -23.7269,-0.0669 -4.214,-1.31696 -4.2139,-1.31697 -4.4203,-2.59045 -4.4203,-2.59045 -4.562,-5.07406 -4.562,-5.07406 -2.3037,-5.70163 -2.3038,-5.70163 -0.2935,-50.30606 -0.2934,-50.30606 1.5783,-6.16068 1.5783,-6.16067 3.0355,-4.73048 3.0355,-4.73048 4.0597,-3.66762 4.0596,-3.66762 5.62,-2.63516 5.62,-2.63517 25.0661,-0.32405 25.0661,-0.32406 1.0909,1.32406 1.0909,1.32405 5.7513,14.38723 5.7513,14.38723 -1.0163,1.61277 -1.0163,1.61277 -27.392,0.5 -27.392,0.5 v 14.5 14.5 l 13.4341,0.28031 13.434,0.2803 1.316,1.09214 1.3159,1.09214 v 15.25511 15.25511 l -1.3159,1.09214 -1.316,1.09214 -13.434,0.2803 -13.4341,0.28031 v 14.5 14.5 l 27.392,0.5 27.392,0.5 1.003,1.59161 1.003,1.59162 -5.2045,13.40838 -5.2044,13.40839 -1.4636,2.25 -1.4636,2.25 -23.727,-0.0669 z m 93.2731,-0.17423 -17,0.25888 -5.2002,-1.83834 -5.2001,-1.83833 -4.2208,-2.92054 -4.2208,-2.92054 -3.7564,-4.74791 -3.7564,-4.74792 -2.0727,-5.5396 -2.0726,-5.5396 v -5.84004 -5.84004 l 1.25,-1.02946 1.25,-1.02947 14.2655,-5.70258 14.2654,-5.70259 1.4846,1.23205 1.4845,1.23205 v 7.75511 7.75511 l 1.396,1.15858 1.396,1.15857 10.354,-0.28613 10.354,-0.28613 0.2793,-13.92285 0.2794,-13.92284 -1.2794,-0.81184 -1.2793,-0.81184 -11.6609,-0.0153 -11.6609,-0.0153 -6.0425,-1.88064 -6.0426,-1.88065 -4.9244,-3.61491 -4.9245,-3.61491 -2.803,-3.67492 -2.803,-3.67493 -2.2954,-5.57952 -2.2953,-5.57952 -0.024,-20.21249 -0.024,-20.21248 2.0726,-5.5396 2.0727,-5.5396 3.8073,-4.81665 3.8073,-4.81664 4.8701,-3.09996 4.87,-3.09996 5.8582,-1.68373 5.8582,-1.68373 15.6418,0.37441 15.6418,0.3744 5.7181,2.65807 5.718,2.65807 5.0407,4.71494 5.0406,4.71495 3.0333,6.16136 3.0332,6.16136 0.5841,6.96662 0.584,6.96662 -1.4118,1.17169 -1.4118,1.17169 -14.1109,5.55533 -14.1108,5.55533 h -1.0443 -1.0444 l -0.809,-1.25 -0.809,-1.25 -0.5,-8.5 -0.5,-8.5 -10.354,-0.28613 -10.354,-0.28613 -1.396,1.15857 -1.396,1.15858 v 12.75511 12.75511 l 1.25,1.01349 1.25,1.01348 13.5,0.47684 13.5,0.47685 4.5,1.64265 4.5,1.64265 5,3.77552 5,3.77553 3.7254,5.46394 3.7253,5.46394 1.5247,5.9601 1.5246,5.9601 -0.016,15.5399 -0.016,15.5399 -1.3293,5.64745 -1.3293,5.64745 -2.5844,4.41007 -2.5845,4.41007 -4.6455,4.28207 -4.6455,4.28208 -5.6752,2.6604 -5.6751,2.66041 -17,0.25887 z m 102,-0.0577 -17,0.26321 -4,-1.31745 -4,-1.31745 -4.0513,-2.08371 -4.0513,-2.08372 -4.3542,-4.33103 -4.3541,-4.33104 -2.9852,-6.34905 -2.9851,-6.34905 -0.478,-6.6801 -0.4779,-6.68011 1.3685,-1.07137 1.3686,-1.07137 14.7647,-5.83474 14.7648,-5.83473 1.2352,1.23084 1.2353,1.23085 0.5,8.70441 0.5,8.70442 10.354,0.28613 10.354,0.28613 1.396,-1.15857 1.396,-1.15858 v -12.75511 -12.75511 l -1.25,-1.02704 -1.25,-1.02703 -14.025,-0.34541 -14.025,-0.34541 -6.58,-3.24128 -6.58,-3.24128 -4.7149,-5.04065 -4.715,-5.04066 -2.68,-5.71806 -2.6801,-5.71807 v -21.5 -21.5 l 2.8213,-6.10458 2.8213,-6.10457 5.1787,-5.09696 5.1787,-5.09696 6,-2.79846 6,-2.79847 h 18 18 l 6.7007,3.1744 6.7007,3.17439 4.3801,4.38008 4.3801,4.38008 2.8055,5.73423 2.8055,5.73424 0.4971,6.94806 0.4971,6.94807 -1.2207,1.47087 -1.2207,1.47088 -14.3861,5.65955 -14.3861,5.65955 -1.5266,-0.58581 -1.5266,-0.58582 v -8.40894 -8.40894 l -1.396,-1.15858 -1.396,-1.15857 -10.354,0.28613 -10.354,0.28613 v 14.5 14.5 l 14.5785,0.52832 14.5786,0.52832 6.432,3.16648 6.4321,3.16648 4.767,4.76698 4.7669,4.76697 2.7225,5.53822 2.7224,5.53823 v 22.5 22.5 l -2.9437,6 -2.9436,6 -4.791,4.67011 -4.791,4.67011 -5.7653,2.79888 -5.7654,2.79888 z m 69.9127,0.29881 h -15.3423 l -1.0352,-1.93426 -1.0352,-1.93426 v -61.88208 -61.88208 l 1.087,-5.93366 1.0869,-5.93366 3.0902,-5.82093 3.0902,-5.82093 4.4517,-3.91856 4.4517,-3.91857 5.6212,-2.7605 5.6211,-2.76051 h 18.521 18.5211 l 6.6637,3.28057 6.6638,3.28058 4.4854,4.98878 4.4853,4.98878 2.065,4.26559 2.0649,4.26559 1.0149,5.35155 1.0149,5.35154 v 63.16351 63.16351 l -1.2,1.2 -1.2,1.2 h -15.241 -15.241 l -0.809,-1.25 -0.809,-1.25 -0.5,-12 -0.5,-12 h -11.5 -11.5 l -0.2834,11.93773 -0.2833,11.93774 -1.0891,1.31226 -1.0891,1.31227 z m 29.5373,-62.01531 9.55,-0.0153 1.2639,-0.80229 1.2639,-0.80229 -0.2639,-32.9324 -0.2639,-32.93239 -10.354,-0.28613 -10.354,-0.28613 -1.396,1.15857 -1.396,1.15858 v 31.67755 31.67756 l 1.2,1.2 1.2,1.2 9.55,-0.0153 z m 101.1947,61.96153 -14.6447,-0.0538 -5.5911,-1.78883 -5.591,-1.78884 -4.7092,-3.23998 -4.7091,-3.23999 -3.4512,-4.66741 -3.4511,-4.6674 -2.0333,-6.54347 -2.0333,-6.54348 0.2846,-51.95652 0.2847,-51.95653 3.0945,-6.5 3.0946,-6.5 4.4054,-4.40545 4.4055,-4.40545 6.5,-3.09455 6.5,-3.09455 h 18 18 l 6.5029,3.08181 6.5028,3.08181 4.6802,4.6802 4.6802,4.68019 2.7166,5.738 2.7166,5.73799 0.4838,6.73677 0.4837,6.73678 -1.1996,1.44544 -1.1996,1.44544 -14.3412,5.71031 -14.3412,5.7103 -1.5926,-0.61113 -1.5926,-0.61114 v -8.33139 -8.33138 l -1.2,-1.2 -1.2,-1.2 h -10.3248 -10.3247 l -0.9753,2.5651 -0.9752,2.5651 v 42.3698 42.3698 l 0.9752,2.5651 0.9753,2.5651 h 10.3247 10.3248 l 1.2,-1.2 1.2,-1.2 v -8.67756 -8.67755 l -1.2696,-1.05369 -1.2696,-1.05369 -4.4804,-0.31876 -4.4804,-0.31875 v -16.5 -16.5 l 21.3731,-0.27025 21.3732,-0.27024 1.3768,1.14269 1.3769,1.14269 v 28.71862 28.71863 l -1.4384,4.77935 -1.4383,4.77934 -3.5689,5.37514 -3.5689,5.37514 -4.7428,3.49984 -4.7427,3.49984 -6.3553,2.00461 -6.3554,2.0046 -14.6446,-0.0538 z m 109.9053,-0.0131 -23.55,-0.0669 -4.214,-1.31696 -4.2139,-1.31697 -4.4203,-2.59045 -4.4203,-2.59045 -4.562,-5.07406 -4.562,-5.07406 -2.3037,-5.70163 -2.3038,-5.70163 -0.2935,-50.30606 -0.2934,-50.30606 1.5783,-6.16068 1.5783,-6.16067 3.0355,-4.73048 3.0355,-4.73048 4.0597,-3.66762 4.0596,-3.66762 5.62,-2.63516 5.62,-2.63517 25.0661,-0.32405 25.0661,-0.32406 1.0909,1.32406 1.0909,1.32405 5.7513,14.38723 5.7513,14.38723 -1.0163,1.61277 -1.0163,1.61277 -27.392,0.5 -27.392,0.5 v 14.5 14.5 l 13.4341,0.28031 13.434,0.2803 1.316,1.09214 1.3159,1.09214 v 15.25511 15.25511 l -1.3159,1.09214 -1.316,1.09214 -13.434,0.2803 -13.4341,0.28031 v 14.5 14.5 l 27.392,0.5 27.392,0.5 1.0627,1.68635 1.0628,1.68635 -5.7289,14.38775 -5.7288,14.38775 -1.1759,1.1759 -1.1759,1.1759 -23.55,-0.0669 z m -1232.5539,-13.14295 -42.00396,0.29015 -1.5666,-1.29015 -1.5667,-1.29015 -3.4294,-5.84759 -3.4294,-5.84759 -6.5295,-6.15241 -6.5295,-6.15241 -5.146,-2.77185 -5.1459,-2.77185 -7.7345,-1.97815 -7.7345,-1.97815 -7.09,0.0156 -7.0901,0.0156 -5.7387,1.35047 -5.7386,1.35047 -1.0304,-1.24156 -1.0305,-1.24156 0.2691,-22.87453 0.2691,-22.87449 h 80.6771 80.67696 l 2.7612,2.06179 2.7612,2.06179 2.0617,2.76229 2.0618,2.7623 v 30.8532 30.85321 l -2.1045,2.82271 -2.1045,2.82271 -3.3955,2 -3.3955,2 z m 370.5039,-1.05793 -32.5,0.23222 -4,-1.43461 -4,-1.43461 -2.7429,-3.25134 -2.7429,-3.25134 -0.5474,-3.04627 -0.5473,-3.04627 0.2903,-83.67704 0.2902,-83.67704 2.0618,-2.76117 2.0618,-2.76117 2.7616,-2.06179 2.7615,-2.06179 h 35.3533 35.3534 l 2.7615,2.06179 2.7616,2.06179 2.0617,2.76154 2.0618,2.76154 v 86.35334 86.35334 l -2.1045,2.82333 -2.1045,2.82333 -3.3955,2 -3.3955,2 z m -759.18266,-0.94418 -1.4508,0.28804 -2.8044,-2.20594 -2.8044,-2.20594 -1.3788,-3.29998 -1.3789,-3.29998 v -27.96702 -27.96702 l 1.0637,-2.8151 1.0636,-2.8151 2.6234,-2.75 2.6235,-2.75 h 1.1837 1.1837 l 0.6159,6.75 0.6159,6.75 0.1473,32 0.1474,32 z m 5.6827,-108.84249 -3,-0.0238 -3.0495,-1.32832 -3.0496,-1.32831 -2.7007,-3.20962 -2.7007,-3.20961 -0.5448,-2.17293 -0.5447,-2.17296 0.295,-29.17873 0.295,-29.17873 2.1046,-2.82127 2.1045,-2.82127 3.3955,-2 3.3954,-2 h 34 34 l 3.1712,1.73491 3.1712,1.73491 2.3218,3.26068 2.3218,3.26068 0.3567,7.06401 0.3567,7.06401 -6.5948,4.84177 -6.5949,4.84176 -4.2548,5.4952 -4.2549,5.49521 -2.5,4.57191 -2.5,4.57192 -3.5,0.87951 -3.5,0.87951 -6.6753,1.90812 -6.6754,1.90812 -7.5006,5.01674 -7.5007,5.01675 -4.3102,5.22714 -4.3103,5.22714 -1.0137,0.73469 -1.0138,0.73468 -3,-0.0238 z m 285.4865,-0.12575 -20.5135,0.3198 -0.7365,-0.73647 -0.7365,-0.73646 v -6.12324 -6.12323 l -1.5385,-5.9601 -1.5386,-5.9601 -2.8103,-6 -2.8103,-6 -4.2106,-5.29589 -4.2107,-5.29589 -6.1905,-4.57459 -6.1905,-4.5746 -4.3522,-2.12843 -4.3521,-2.12842 0.4168,-5.76222 0.4168,-5.76221 3.3449,-3.4511 3.3449,-3.4511 5.3136,-1.10308 5.3135,-1.10309 30.7769,0.31531 30.7769,0.31531 3.5,2.18093 3.5,2.18093 2,3.31907 2,3.31907 v 29.5 29.5 l -1.7349,3.17116 -1.7349,3.17116 -3.2651,2.32884 -3.2651,2.32884 z m 106.69176,-0.0892 -34.1783,0.23061 -3.0495,-1.34806 -3.0496,-1.34807 -2.6607,-3.16198 -2.66056,-3.16198 -0.5947,-3.22057 -0.5947,-3.22056 0.3049,-28.17883 0.3049,-28.17883 2.10456,-2.82117 2.1045,-2.82117 3.3955,-2 3.3954,-2 h 34 34 l 3.3955,2 3.3955,2 2.1045,2.82333 2.1045,2.82333 v 30.85334 30.85334 l -2.0618,2.76154 -2.0617,2.76154 -2.76,2.06179 -2.7599,2.06179 z m 263.8217,0.11574 -11,0.34848 -6.3004,-6.00006 -6.3005,-6.00007 -6.6995,-3.47598 -6.6996,-3.47598 -3.9021,-1.24912 -3.9021,-1.24913 -5.0848,-0.62224 -5.0849,-0.62225 -4.1337,-6.319 -4.1338,-6.319 -3.1293,-3.22861 -3.1293,-3.2286 v -14.26814 -14.26813 l 1.1222,-2.18426 1.1222,-2.18426 2.5266,-2.70998 2.5265,-2.70999 5.3244,-1.10532 5.3243,-1.10533 30.7769,0.31531 30.7769,0.31532 3.5,2.18093 3.5,2.18093 2,3.31907 2,3.31907 v 29.5 29.5 l -1.7349,3.17116 -1.7349,3.17116 -3.2651,2.32777 -3.2651,2.32777 -11,0.34849 z M 575.792,390.58931 h -0.5208 l -0.5971,-2.37935 -0.5972,-2.37935 0.3281,-24.87065 0.3281,-24.87065 2.181,-3.5 2.1809,-3.5 3.3191,-2 3.319,-2 30.777,-0.31531 30.7769,-0.31531 5.4225,1.12571 5.4225,1.12571 3.0361,3.45794 3.0361,3.45794 0.5706,2.27333 0.5706,2.27333 -0.3061,5.95833 -0.3062,5.95833 -6.5,-0.32196 -6.5,-0.32197 -7.5,1.55805 -7.5,1.55805 -7.0075,3.4487 -7.0075,3.44871 -6.157,5.5717 -6.1569,5.57171 -4.101,6.4935 -4.101,6.49351 h -3.0902 -3.0902 l -6.0843,1.57662 -6.0844,1.57661 -3.7701,1.92339 -3.7702,1.92338 z m 445.0045,-74 h -15.3185 l -1.1499,-1.38549 -1.1498,-1.38548 0.2774,-66.86452 0.2774,-66.86451 2.8213,-6.10458 2.8213,-6.10457 5.1787,-5.09696 5.1787,-5.09696 6,-2.79846 6,-2.79847 h 18 18 l 6.7248,3.18565 6.7247,3.18565 4.4684,4.59758 4.4683,4.59758 2.8069,5.71677 2.8069,5.71677 v 68.5 68.5 h -16.5 -16.5 l -0.2466,-11 -0.2466,-11 -0.5306,-2.2825 -0.5306,-2.28249 -11.2228,0.28249 -11.2228,0.2825 -0.5,12 -0.5,12 -0.809,1.25 -0.809,1.25 z m 28.7052,-62 h 10.3314 l 1.2,-1.2 1.2,-1.2 V 220.51175 188.8342 l -1.396,-1.15858 -1.396,-1.15857 -10.354,0.28613 -10.354,0.28613 -0.2642,32.49188 -0.2641,32.49187 0.4827,1.25813 0.4828,1.25812 z m 103.2578,61.72413 -17.0264,0.22413 -4.214,-1.35799 -4.2139,-1.35799 -4.4203,-2.59045 -4.4203,-2.59045 -4.562,-5.07406 -4.562,-5.07406 -2.3037,-5.70163 -2.3038,-5.70163 -0.2842,-65.75189 -0.2841,-65.7519 1.0693,-1.9981 1.0694,-1.99811 h 15.2648 15.2648 l 1.2,1.2 1.2,1.2 0.015,62.55 0.015,62.55 0.8157,1.28555 0.8157,1.28554 10.919,-0.28554 10.919,-0.28555 0.2575,-63.40659 0.2575,-63.40659 1.115,-1.34341 1.1149,-1.34341 h 15.2551 15.2551 l 1.1629,1.40121 1.1629,1.40121 -0.2904,66.34879 -0.2905,66.34879 -2.3206,5.74666 -2.3206,5.74666 -5.0077,5.47923 -5.0077,5.47922 -6.6453,3.27412 -6.6453,3.27411 -17.0264,0.22413 z m 100.037,0.27587 h -15.3185 l -1.1149,-1.34341 -1.115,-1.34341 -0.2575,-63.40659 -0.2575,-63.40659 -12.9352,-0.28126 -12.9352,-0.28126 -1.3148,-1.09118 -1.3148,-1.09119 v -15.17755 -15.17756 l 1.2,-1.2 1.2,-1.2 h 44.1 44.1 l 1.2,1.2 1.2,1.2 v 15.17756 15.17755 l -1.3148,1.09119 -1.3148,1.09118 -12.9352,0.28126 -12.9352,0.28126 -0.5,63.5 -0.5,63.5 -0.809,1.25 -0.809,1.25 z m 102.963,-0.27587 -17.0264,0.22413 -4,-1.30938 -4,-1.30938 -4.0968,-2.10692 -4.0968,-2.10692 -5.0826,-5.56117 -5.0826,-5.56117 -2.3206,-5.74666 -2.3206,-5.74666 v -53 -53 l 2.2451,-5.5449 2.2451,-5.54489 5.0479,-5.66362 5.0479,-5.66361 6.6848,-3.29149 6.6847,-3.29149 15.664,-0.35242 15.6641,-0.35242 5.8582,1.68373 5.8582,1.68373 4.789,3.04793 4.7889,3.04794 3.3405,4.12075 3.3404,4.12076 2.0296,4.03172 2.0295,4.03173 1.0911,5.90193 1.091,5.90194 v 45.13268 45.13268 l -1.0869,5.87933 -1.0868,5.87933 -2.0374,4.33437 -2.0374,4.33437 -4.4409,4.93938 -4.441,4.93939 -6.6584,3.28058 -6.6584,3.28057 z m -1.6648,-34.72413 h 10.9244 l 0.607,-1.58179 0.607,-1.58178 V 233.62997 188.8342 l -1.396,-1.15858 -1.396,-1.15857 -10.354,0.28613 -10.354,0.28613 -0.2606,46 -0.2607,46 0.4793,1.25 0.4792,1.25 z m 71.2233,35 h -14.7516 l -0.6666,-0.66667 -0.6667,-0.66666 v -66.15184 -66.15183 l 1.5111,-5.08841 1.5111,-5.08841 3.3225,-4.84309 3.3225,-4.84309 4.9164,-3.7725 4.9164,-3.77251 6.7727,-2.08178 6.7726,-2.08178 15.7274,0.37627 15.7273,0.37627 5.6595,2.63127 5.6596,2.63127 2.7279,-1.4153 2.728,-1.4153 5.4707,-1.59037 5.4707,-1.59038 15.6641,0.35242 15.664,0.35242 6.5827,3.24128 6.5828,3.24128 4.7149,5.04065 4.715,5.04066 2.68,5.71806 2.6801,5.71807 0.2839,66.85672 0.2838,66.85672 -1.1563,1.39328 -1.1563,1.39328 h -15.3185 -15.3186 l -0.809,-1.25 -0.809,-1.25 -0.5,-63.5 -0.5,-63.5 -10.354,-0.28613 -10.354,-0.28613 -1.396,1.15857 -1.396,1.15858 v 62.75511 62.75511 l -1.3846,1.14911 -1.3846,1.14912 -15.3654,-0.27667 -15.3654,-0.27667 -0.5,-63.5 -0.5,-63.5 -0.809,-1.25 -0.809,-1.25 h -10.241 -10.241 l -1.2,1.2 -1.2,1.2 v 63.19301 63.19301 l -1.5818,0.60699 -1.5818,0.60699 z m 161.4785,0 h -15.3185 l -1.1499,-1.38549 -1.1498,-1.38548 0.2774,-66.88678 0.2774,-66.88678 3.2413,-6.58274 3.2413,-6.58273 5.0406,-4.71495 5.0407,-4.71494 5.718,-2.68005 5.7181,-2.68006 h 18 18 l 6.7248,3.18565 6.7247,3.18565 4.4676,4.59677 4.4675,4.59677 2.8077,5.71758 2.8077,5.71758 v 68.5 68.5 h -16.5 -16.5 l -0.2466,-11 -0.2466,-11 -0.5306,-2.2825 -0.5306,-2.28249 -11.2228,0.28249 -11.2228,0.2825 -0.5,12 -0.5,12 -0.809,1.25 -0.809,1.25 z m 28.7052,-62 h 10.3314 l 1.2,-1.2 1.2,-1.2 V 220.51175 188.8342 l -1.396,-1.15858 -1.396,-1.15857 -10.354,0.28613 -10.354,0.28613 -0.2642,32.49188 -0.2641,32.49187 0.4827,1.25813 0.4828,1.25812 z m 102.7057,61.77425 -15.5258,0.27426 -1.2242,-1.22426 -1.2243,-1.22425 V 251.9711 189.75288 l -0.607,-1.58178 -0.607,-1.58179 h -12.8216 -12.8215 l -1.5715,-1.57143 -1.5714,-1.57143 v -13.99431 -13.99431 l 1.0352,-1.93426 1.0352,-1.93426 h 44.7648 44.7648 l 1.2,1.2 1.2,1.2 v 14.72857 14.72857 l -1.5714,1.57143 -1.5715,1.57143 h -12.3695 -12.3696 l -0.809,1.25 -0.809,1.25 -0.5,63.5 -0.5,63.5 z m 72,0 -15.5258,0.27426 -1.2242,-1.22426 -1.2243,-1.22425 v -80.1 -80.1 l 1.2,-1.2 1.2,-1.2 14.55,0.0153 14.55,0.0153 1.2559,0.79736 1.2559,0.79736 -0.2559,81.43733 -0.2559,81.43732 -15.5257,0.27425 z m 72.5521,-0.0501 -17.0264,0.22413 -4.214,-1.35799 -4.2139,-1.35799 -4.3436,-2.54549 -4.3435,-2.5455 -3.9824,-4.32064 -3.9824,-4.32065 -2.1952,-4.53495 -2.1952,-4.53494 -1.0149,-5.35155 -1.0149,-5.35154 v -46.31429 -46.31429 l 1.1087,-5.29922 1.1087,-5.29922 3.0684,-5.82093 3.0685,-5.82093 4.5728,-4.069 4.5729,-4.069 5.5,-2.61007 5.5,-2.61007 h 18.5 18.5 l 5.7682,2.70303 5.7683,2.70303 5.2704,5.29697 5.2703,5.29697 2.3515,5 2.3515,5 1.0609,7.26324 1.061,7.26324 -1.4511,1.41135 -1.451,1.41135 -14.3872,5.73373 -14.3873,5.73374 -1.6127,-1.01236 -1.6128,-1.01236 -0.5,-8.89596 -0.5,-8.89597 -10.354,-0.28613 -10.354,-0.28613 -1.396,1.15857 -1.396,1.15858 0.015,45.12755 0.015,45.12756 0.8157,1.28555 0.8157,1.28554 10.919,-0.28554 10.919,-0.28555 0.5,-8.89597 0.5,-8.89596 1.5884,-0.997 1.5884,-0.997 14.4116,5.76483 14.4116,5.76483 1.3279,1.62813 1.3279,1.62814 -0.643,5.88647 -0.643,5.88648 -2.0055,5.36018 -2.0055,5.36019 -5.0077,5.47923 -5.0077,5.47922 -6.6453,3.27412 -6.6453,3.27411 -17.0264,0.22413 z m -1722.84806,-21.95468 -34.1783,0.26948 -4.0763,-2.03803 -4.0762,-2.03803 -2.1738,-3.8676 -2.1737,-3.8676 v -28.86384 -28.86385 l 1.7485,-3.48007 1.7484,-3.48006 3.3979,-2.26994 3.3979,-2.26993 h 35.2042 35.2043 l 3.2962,2.25 3.2963,2.25 1.8783,3.5 1.8784,3.5 -0.2767,29.67864 -0.2768,29.67863 -2.0618,2.75958 -2.0618,2.75957 -2.7599,2.06179 -2.7599,2.06179 z m 119.3217,0.17494 -33.5,-0.0227 -3,-1.33336 -3,-1.33336 -2.2738,-2.46737 -2.2739,-2.46737 -0.9761,-3.40353 -0.9762,-3.40352 v -26.94087 -26.94088 l 2.071,-4.27802 2.0709,-4.27801 3.2971,-2.03771 3.2971,-2.03771 34.882,0.004 34.8819,0.004 3.2592,1.98712 3.2591,1.98712 1.9871,3.25914 1.9872,3.25914 v 29.5156 29.5156 l -1.8541,3.4844 -1.8541,3.4844 -3.8959,2.23355 -3.8959,2.23355 -33.5,-0.0227 z m 121.1783,-0.17043 -34.6783,0.27398 -3.5,-1.87559 -3.5,-1.87559 -2.25,-3.29627 -2.25,-3.29628 v -30.10211 -30.10212 l 1.9872,-3.25914 1.9871,-3.25914 3.2591,-2.0075 3.2592,-2.00751 35.5,0.26665 35.5,0.26664 2.6656,2 2.6655,2 1.8345,3 1.8344,3 v 29.5 29.5 l -2,3.39547 -2,3.39547 -2.8218,2.10453 -2.8218,2.10453 -34.6782,0.27398 z m 120.49996,-0.0434 -34.1783,0.23061 -3,-1.35311 -3,-1.35311 -2.1834,-2.3775 -2.1833,-2.3775 -1.06666,-2.8151 -1.0666,-2.8151 v -28.2005 -28.2005 l 1.85156,-3.4844 1.8517,-3.4844 3.2962,-2.25 3.2963,-2.25 h 35.2042 35.2043 l 3.2962,2.25 3.2963,2.25 1.8783,3.5 1.8784,3.5 -0.2767,29.67864 -0.2768,29.67863 -2.0618,2.75958 -2.0617,2.75957 -2.76,2.06179 -2.7599,2.06179 z m 119.3373,0.23025 -33.5156,-0.0391 -3.0848,-1.34313 -3.0848,-1.34313 -2.1618,-2.74828 -2.1618,-2.74827 -1.0739,-3.98838 -1.074,-3.98837 0.3206,-27.13108 0.3205,-27.13109 2.2658,-3.64354 2.2658,-3.64354 3.3853,-1.60646 3.3854,-1.60646 34.3489,0.004 34.3488,0.004 3.2592,1.98712 3.2591,1.98712 1.9871,3.25914 1.9872,3.25914 v 30.10212 30.10211 l -2.25,3.29628 -2.25,3.29627 -3.4844,1.85161 -3.4844,1.85161 -33.5156,-0.0391 z m 121.1627,-0.18688 -34.6783,0.27398 -3.5,-1.87559 -3.5,-1.87559 -2.25,-3.29627 -2.25,-3.29628 V 254.1914 224.08928 l 1.9872,-3.25914 1.9871,-3.25914 3.2591,-1.98712 3.2592,-1.98712 34.3488,-0.004 34.3489,-0.004 3.3854,1.60646 3.3853,1.60646 2.2658,3.64354 2.2658,3.64354 v 29.5 29.5 l -2,3.39547 -2,3.39547 -2.8218,2.10453 -2.8218,2.10453 -34.6782,0.27398 z m 120.5,-0.0434 -34.1783,0.23061 -3,-1.35311 -3,-1.35311 -2.1834,-2.3775 -2.1833,-2.3775 -1.0667,-2.8151 -1.0666,-2.8151 v -28.2005 -28.2005 l 1.8516,-3.4844 1.8517,-3.4844 3.2962,-2.25 3.2963,-2.25 h 35.2042 35.2043 l 3.2962,2.25 3.2963,2.25 1.8783,3.5 1.8784,3.5 -0.2767,29.67864 -0.2768,29.67863 -2.0618,2.75958 -2.0617,2.75957 -2.76,2.06179 -2.7599,2.06179 z"
       id="path172" />
  </g>
</svg>
