<svg width="1920" height="781" xmlns="http://www.w3.org/2000/svg"><path style="fill:#006eff" d="M674.143 768.59H577.17l-.517-1.348-.517-1.348 3.563-27.902 3.563-27.903 1.214-5.888 1.214-5.888-4.478-3.593-4.479-3.592-9.868-9.52-9.869-9.519-17.131-20.489-17.132-20.489-10-10.514-10-10.515-3.291-5.148-3.291-5.148-1.959-5.573-1.959-5.574V574.664l2.154-5.756 2.154-5.757 5.127-5.127 5.127-5.127 5.757-2.154 5.756-2.154h11.612l5.64 1.94 5.64 1.94 4.766 3.237 4.767 3.236 8.644 8.4 8.643 8.4.754-1.22.754-1.22 1.213-69.106 1.214-69.107 1.598-4.26 1.6-4.262 3.009-4.374 3.01-4.374 4.735-3.137 4.736-3.137 4.976-1.478 4.977-1.478 4.069.026 4.068.026 6.755 2.302 6.756 2.302.494-.494.495-.495v-10.592l2.033-5.434 2.034-5.435 3.996-4.54 3.995-4.539 6.13-3.063 6.132-3.064h14.605l5.55 2.076 5.548 2.077 4.775 4.673 4.775 4.674 2.36 5 2.36 5 .491 7.34.49 7.34 2.113-.507 2.113-.509 4.5-1.682 4.5-1.681 6.5.455 6.5.456 5.202 2.247 5.202 2.246 4.892 5.173 4.892 5.173 2.156 5.762 2.156 5.762v12.925l1.25-.015 1.25-.015 4-1.44 4-1.442 6.713-.044 6.712-.044 5.509 2.061 5.508 2.061 4.598 4.469 4.598 4.469 2.621 5.72 2.622 5.72.352 8 .352 8-1.453 76.5-1.453 76.5-1.771 7-1.771 7-10.923 21.5-10.922 21.5 1.132 5.5 1.133 5.5 4.413 29.44 4.414 29.44-.501.81-.5.81zm.046-62h73.24l-.654-5.75-.654-5.75 9.872-20.094 9.871-20.092 2.839-8.408 2.839-8.407.741-38 .742-38 .354-44 .354-44-1.749-3.198-1.749-3.198-3.599-2.745-3.598-2.745-5.653-.348-5.652-.348-3.997 2.321-3.997 2.322-2.46 4.458-2.458 4.457-.406 36.012-.405 36.012-1.011 1.25-1.01 1.25-5.128-.015-5.128-.015-1.405-.89-1.405-.89.699-54.345.698-54.345-2.293-4.492-2.294-4.492-3.362-2.233-3.361-2.234-3.389-.636-3.388-.635-3.521.66-3.522.661-3.627 3.185-3.628 3.185-1.462 3.5-1.462 3.498-.446 52.517-.446 52.516-.473 2.294-.473 2.293-7.22-.293-7.22-.294.345-72.25.345-72.25-2.638-4.502-2.638-4.501-3.917-1.998-3.917-1.999h-9.18l-2.7 1.411-2.7 1.41-2.686 2.84-2.687 2.84-1.003 2.657-1.004 2.658-.583 51.342-.583 51.342-.587 20.25-.587 20.25h-15.107l.645-54.75.645-54.75-1.903-4.184-1.903-4.183-3.828-2.5-3.829-2.498-3.685-.667-3.685-.666-3.59 1.185-3.59 1.185-3.011 2.533-3.01 2.534-1.546 2.987-1.545 2.988-.434 16.643-.435 16.643-1.027 51.5-1.027 51.5-.96 11.891-.958 11.891-1.749 1.328-1.748 1.327-2.906.032-2.905.031-3.595-2.684-3.594-2.685-13.104-12.804-13.104-12.804-5.74-2.627-5.739-2.628-5.248.435-5.248.436-3.275 2.332L511 568.89l-1.861 4.1-1.862 4.098-.016 4-.016 4 1.021 3.678 1.022 3.677 3.223 4.558 3.223 4.557 24.975 28.265 24.974 28.265 18.24 18.45 18.238 18.451-.606 5.8-.606 5.8h73.24zm375.48 38h-15.318l-.809-1.25-.809-1.25-.5-63.5-.5-63.5-12.935-.282-12.935-.281-1.315-1.091-1.315-1.092v-30.51l1.365-1.133 1.365-1.132 44.885.26 44.885.26.276 15.867.276 15.866-1.125 1.355-1.125 1.356-13.15.278-13.152.278-.257 63.407-.258 63.407-1.115 1.343-1.115 1.343zm102.005-.227-16.06.274-.69-.69-.691-.691v-78.393l-6.363-9.387-6.363-9.387-3.511-7-3.512-7-2.688-7.484-2.69-7.485-1.364-6.515-1.365-6.516-1.12-10.226-1.12-10.227 1.097-2.049 1.096-2.048 15.594.275 15.594.275.762 1.5.762 1.5.983 10 .983 10 3.22 9.692 3.219 9.692 1.874 1.696 1.875 1.696 1.409-1.17 1.409-1.169 2.17-5.043 2.17-5.044 1.948-7.62 1.95-7.622.638-8.304.638-8.304 1.237-1.026 1.237-1.027 15.366.277 15.365.276.31 7 .31 7-1.66 10-1.66 10-2.518 8-2.52 8-4.008 8-4.009 8-6.122 8.954-6.123 8.954-.5 40.046-.5 40.046zm70.828.226h-15.332l-.477-1.25-.477-1.25.259-81 .258-81h64l5.718 2.68 5.718 2.68 5.04 4.715 5.041 4.715 3.242 6.584 3.241 6.584v43.084l-3.241 6.584-3.242 6.584-5.04 4.715-5.04 4.715-5.719 2.644-5.718 2.645-14 .393-14 .393-1.25 1.015-1.25 1.015V742.19l-1.2 1.2-1.2 1.2zm30.456-100h10.325l.975-2.565.975-2.565v-19.74l-.975-2.565-.975-2.565h-20.65l-1.2 1.2-1.2 1.2v25.2l1.2 1.2 1.2 1.2zm109.502 99.933-23.727-.067-4-1.268-4-1.268-4-2.084-4-2.084-4.7-4.831-4.701-4.83-2.8-6-2.799-6V608.047l3.241-6.585 3.242-6.584 5.04-4.715 5.04-4.715 5.719-2.68 5.718-2.68 25.077-.31 25.077-.312 1.023 1.311 1.024 1.311 5.81 14.704 5.81 14.703-1.27 1.531-1.27 1.53-27.14.266-27.141.266v29l13.434.28 13.434.28 1.316 1.093 1.316 1.092v30.51l-1.316 1.092-1.316 1.093-13.434.28-13.434.28v29l27.202.5 27.202.5 1.227 1.229 1.227 1.229-5.288 13.771-5.289 13.771-1.413 2.25-1.414 2.25-23.727-.067zm62.108.067h-15.265l-1.035-1.934-1.035-1.934V582.972l1.285-1.757 1.284-1.757 31.49.316 31.49.315 6.66 3.281 6.66 3.28 4.486 4.99 4.485 4.988 2.08 4.296 2.08 4.296 1.103 5.935 1.104 5.934-.381 16.5-.381 16.5-3.075 6.548-3.075 6.547-3.148 3.585-3.147 3.584v2.428l1.872 2.654 1.871 2.654 2.546 5.055 2.546 5.054 1.674 5.946 1.674 5.945.533 20.748.532 20.748-1.246 1.502-1.247 1.502h-30.51l-1.045-1.258-1.044-1.259-.328-19.991-.328-19.992-2.672-5.063-2.673-5.063-4.018-3.63-4.018-3.63-3.01-1.557-3.01-1.557h-4.099v60.6l-1.2 1.2-1.2 1.2zm29.665-99h8.618l1.72-1.258 1.722-1.258-.28-13.992-.28-13.992h-23l-.28 13.992-.28 13.992 1.721 1.258 1.721 1.258zm-1209.91 82h-96.972l-.552-.894-.553-.894 3.998-27.856 3.998-27.856 1.628-6.74 1.628-6.738-2.452-4.761-2.453-4.76-8.02-15.586-8.021-15.586-2.263-7.914-2.264-7.915-.833-39.5-.834-39.5-.313-46-.312-46 2.784-5.284 2.784-5.284 3.925-3.924 3.924-3.925 3.823-1.95 3.824-1.95 5.468-.997 5.468-.996 5.184.835 5.183.834 2 1.07 2.002 1.071H179.233v-12.925l2.147-5.737 2.146-5.737 4.584-4.9 4.583-4.9 5.02-2.557 5.02-2.556 7-.45 7-.45 6.219 2.107 6.218 2.105H230.233l.042-5.75.042-5.75 1.708-4.702 1.709-4.703 3.087-4.345 3.086-4.345 4.854-3.215 4.855-3.215 4.059-1.134 4.059-1.133 6.092.019 6.092.02 6.156 2.762 6.155 2.762 3.931 4.265 3.932 4.265 2.22 4.35 2.222 4.35.486 6.774.486 6.776.813.502.814.503 6.3-2.134 6.3-2.134 6.643.465 6.643.465 4.857 2.344 4.858 2.344 4.674 4.785 4.674 4.786 2.25 5.762 2.25 5.761.834 55.5.834 55.5.596 14.25.596 14.25H351.489l9.79-9.397 9.791-9.397 6.81-3.353 6.812-3.353h19.042l5.355 2.967 5.356 2.966 3.86 4.386 3.862 4.387 2.034 5.435 2.033 5.434v13.562l-1.487 5.006-1.486 5.005-4.084 6.32-4.085 6.319-9.679 10.107-9.68 10.106-17.13 20.5-17.132 20.5-9.869 9.52-9.868 9.519-4.44 3.56-4.438 3.56 1.696 9.42 1.697 9.421 3.077 24.31 3.076 24.31-.553 1.44-.552 1.44zm-.046-62h73.241l-.606-5.8-.606-5.799 18.25-18.45 18.25-18.45 20.964-23.994 20.963-23.992 6.179-6.758 6.178-6.758 2.072-5.537 2.071-5.537-.022-4.212-.022-4.213-1.861-4.099-1.862-4.099-3.301-2.35-3.301-2.35-5.603-.406-5.604-.405-4.962 2.303-4.962 2.303-12.5 12.111-12.5 12.112-4.43 3.69-4.43 3.69h-4.546l-2.43-1.107-2.43-1.107-.592-4.143-.593-4.143-1.029-27.5-1.029-27.5-.917-48.647-.917-48.648-1.542-2.983-1.543-2.983-3.081-2.593-3.081-2.592-3.858-1.156-3.859-1.156-3.485.653-3.484.654-3.362 2.234-3.362 2.233-2.271 4.492-2.272 4.492.684 54.75.683 54.75h-14.206l-.579-.937-.579-.937-1.004-70.722-1.003-70.722-1.85-4.183-1.85-4.183-3.311-2.357-3.311-2.358-5.682-.41-5.681-.412-3.723 1.767-3.723 1.767-2.661 4.028-2.66 4.029v146.13l-6.4.302-6.398.301-1.083-1.083-1.083-1.083-.671-54.33-.671-54.33-1.508-2.888-1.508-2.889-2.84-2.686-2.839-2.686-2.815-1.064-2.815-1.064h-6.934l-3.218 1.371-3.218 1.372-2.202 2.392-2.202 2.393-1.592 3.81-1.592 3.81.701 54.291.702 54.291-5.602.7-5.601.7-1.946-1.04-1.946-1.042-.398-36.274-.398-36.274-1.853-3.806-1.852-3.807-3.402-2.594-3.401-2.594-4.904-.472-4.903-.47-2.536.636-2.536.636-3.415 2.998-3.415 2.999-1.56 3.9-1.561 3.9.917 68.337.916 68.337.496 12.504.496 12.504 2.624 7.996 2.623 7.996 9.99 20.5 9.989 20.5-.667 5.75-.666 5.75h73.24zM90.483 602.51l-15.75-.079-6-1.323-6-1.323-5.803-2.19-5.804-2.189-7.4-4.949-7.4-4.949-5.306-5.864-5.307-5.864-3.766-6.345-3.765-6.345-2.724-8-2.725-8-.278-171.5-.278-171.5 1.582-8 1.583-8 4.39-9.088 4.389-9.088 7.093-7.596 7.093-7.595 6.46-4.08 6.459-4.079 5.208-2.053 5.208-2.052 5.545-1.68 5.546-1.68 323.473-.504 323.472-.505.699-4.093.698-4.093 1.482-3.547 1.482-3.546 3.66-4.052 3.661-4.052 4.551-2.203 4.551-2.203 8.136-.605 8.135-.606.786-6.5.786-6.5 1.985-14.274 1.985-14.274 1.914-8.015 1.914-8.014-1.373-5.212-1.374-5.21-1.562-4.376-1.56-4.376v-8.453l2.27-3.398 2.269-3.398 3.48-1.748 3.48-1.749h6l3.48 1.749 3.48 1.748 2.271 3.4 2.27 3.398 2.944 9.188 2.943 9.188.616 4.913.616 4.913-2.59 12.5-2.59 12.5-1.91 14.825-1.91 14.825.502 1.307.502 1.307 4.043.647 4.043.647 3.145 1.581 3.145 1.582 3.833 3.64 3.832 3.64 1.614 3 1.614 3 1.132 5.5 1.132 5.5 49.421.594 49.422.594 6.5 1.69 6.5 1.689 8.5 4.169 8.5 4.169 9.122 9.079 9.121 9.079 4.574 9.468 4.575 9.468 1.582 8 1.582 8-.278 171.5-.278 171.5-2.724 8-2.725 8-3.775 6.493-3.776 6.493-7.507 7.507-7.507 7.507-6.493 3.776-6.493 3.775-8 2.712-8 2.712-52.277.312-52.277.313.277-14.8.277-14.8 50-.5 50-.5 5.817-2.347 5.817-2.347 6.237-5.834 6.238-5.835 2.66-5.433 2.66-5.433 1.011-4.385 1.011-4.386.024-166.04.024-166.04-1.552-5.96-1.552-5.96-2.596-4.432-2.597-4.431-4.601-4.482-4.602-4.482-6.5-3.086-6.5-3.087-59-.5-59-.5-3.17-1.735-3.172-1.735-2.265-3.18-2.266-3.182-.563-9.584-.564-9.584h-34l-.5 9.678-.501 9.678-2.104 2.822-2.104 2.822-3.395 2-3.396 2-333 .5-333 .5-6.5 3.087-6.5 3.086-4.601 4.482-4.601 4.482-2.597 4.431-2.597 4.432-1.552 5.96-1.552 5.96.024 166.04.024 166.04 1.011 4.386 1.011 4.385 2.66 5.433 2.661 5.433 6.237 5.835 6.237 5.834 5.817 2.295 5.817 2.294 15.31.394 15.309.393.94 2.474.941 2.475v24.869zm354.25.08h-24.5V601.312l7.26-7.612 7.26-7.61 4.523-6.5 4.523-6.5 10.38-.287 10.38-.287 1.02 1.02 1.02 1.02-.229 5.266-.23 5.267 1.547 8 1.546 8v1.5zm576.064-72h-15.319l-1.15-1.385-1.15-1.386.278-66.864.277-66.865 3.109-6.5 3.108-6.5 4.392-4.374 4.391-4.375 6.5-3.125 6.5-3.126 16.041-.332 16.041-.333 5.96 2.217 5.958 2.217h7l5.959-2.217 5.959-2.217 16.04.333 16.042.332 6.5 3.087 6.5 3.086 4.588 4.664 4.588 4.664 2.912 5.75 2.912 5.75.286 66.5.287 66.5-.556 2.25-.555 2.25h-31.844l-.809-1.25-.809-1.25-.5-63.5-.5-63.5-10.413-.287-10.413-.287-1.087 1.086-1.087 1.086-.5 63.7-.5 63.701h-33l-.257-63.406-.258-63.407-1.142-1.376-1.141-1.375-10.601.282-10.6.282-.5 63.5-.5 63.5-.81 1.25-.809 1.25zm197.663-.067-23.727-.066-4.214-1.317-4.214-1.317-4.42-2.59-4.42-2.591-4.562-5.074-4.562-5.074-2.304-5.702-2.304-5.702-.293-50.306-.294-50.306 1.579-6.16 1.578-6.161 3.035-4.73 3.036-4.731 4.06-3.668 4.06-3.667 5.62-2.636 5.62-2.635 25.065-.324 25.066-.324 1.091 1.324 1.091 1.324 5.751 14.388 5.752 14.387-1.017 1.613-1.016 1.612-27.392.5-27.392.5v29l13.434.28 13.434.28 1.316 1.093 1.316 1.092v30.51l-1.316 1.093-1.316 1.092-13.434.28-13.434.28v29l27.392.5 27.392.5 1.003 1.592 1.003 1.592-5.204 13.408-5.205 13.408-1.463 2.25-1.464 2.25-23.727-.067zm93.273-.174-17 .26-5.2-1.84-5.2-1.838-4.221-2.92-4.22-2.92-3.757-4.749-3.757-4.748-2.072-5.54-2.073-5.539v-11.68l1.25-1.03 1.25-1.029 14.266-5.702 14.265-5.703 1.485 1.232 1.484 1.232v15.51l1.396 1.159 1.396 1.159 10.354-.287 10.354-.286.28-13.923.279-13.922-1.28-.812-1.279-.812-11.66-.015-11.662-.016-6.042-1.88-6.043-1.881-4.924-3.615-4.925-3.615-2.803-3.675-2.803-3.675-2.295-5.58-2.295-5.579-.024-20.212-.024-20.213 2.072-5.54 2.073-5.539 3.807-4.816 3.807-4.817 4.87-3.1 4.87-3.1 5.859-1.684 5.858-1.684 15.642.375 15.642.374 5.718 2.658 5.718 2.658 5.04 4.715 5.041 4.715 3.033 6.162 3.033 6.161.585 6.967.584 6.966-1.412 1.172-1.412 1.172-14.11 5.555-14.112 5.555h-2.088l-.81-1.25-.808-1.25-.5-8.5-.5-8.5-10.354-.286-10.354-.286-1.396 1.159-1.396 1.158v25.51l1.25 1.014 1.25 1.013 13.5.477 13.5.477 4.5 1.643 4.5 1.642 5 3.776 5 3.775 3.725 5.464 3.725 5.464 1.525 5.96 1.525 5.96-.016 15.54-.016 15.54-1.33 5.648-1.329 5.647-2.584 4.41-2.585 4.41-4.645 4.282-4.646 4.283-5.675 2.66-5.675 2.66-17 .26zm102-.058-17 .264-4-1.318-4-1.317-4.051-2.084-4.052-2.084-4.354-4.33-4.354-4.332-2.985-6.349-2.985-6.349-.478-6.68-.478-6.68 1.368-1.071 1.37-1.072 14.764-5.834 14.765-5.835 1.235 1.23 1.235 1.231.5 8.705.5 8.704 10.354.286 10.354.287 1.396-1.159 1.396-1.159v-25.51l-1.25-1.027-1.25-1.027-14.025-.345-14.025-.346-6.58-3.241-6.58-3.241-4.715-5.04-4.715-5.042-2.68-5.718-2.68-5.718v-43l2.821-6.104 2.822-6.105 5.178-5.097 5.18-5.097 6-2.798 6-2.799h36l6.7 3.175 6.7 3.174 4.38 4.38 4.38 4.38 2.806 5.734 2.806 5.735.497 6.948.497 6.948-1.22 1.47-1.222 1.472-14.386 5.66-14.386 5.659-1.526-.586-1.527-.586v-16.818l-1.396-1.158-1.396-1.159-10.354.286-10.354.286v29l14.579.529 14.578.528 6.432 3.166 6.432 3.167 4.767 4.767 4.767 4.767 2.723 5.538 2.722 5.538v45l-2.944 6-2.943 6-4.791 4.67-4.791 4.67-5.765 2.8-5.766 2.798zm69.913.3h-15.342l-1.036-1.935-1.035-1.934V402.957l1.087-5.934 1.087-5.934 3.09-5.82 3.09-5.822 4.452-3.918 4.452-3.919 5.621-2.76 5.621-2.76h37.042l6.664 3.28 6.664 3.28 4.485 4.99 4.485 4.988 2.065 4.266 2.065 4.265 1.015 5.352 1.015 5.351V528.19l-1.2 1.2-1.2 1.2h-30.482l-.809-1.25-.809-1.25-.5-12-.5-12h-23l-.283 11.938-.284 11.938-1.089 1.312-1.089 1.312zm29.537-62.016 9.55-.015 1.264-.803 1.264-.802-.264-32.932-.264-32.933-10.354-.286-10.354-.286-1.396 1.159-1.396 1.158V466.19l1.2 1.2 1.2 1.2 9.55-.015zm101.195 61.962-14.645-.054-5.591-1.79-5.591-1.788-4.71-3.24-4.708-3.24-3.452-4.667-3.45-4.668-2.034-6.543-2.033-6.544.284-51.956.285-51.957 3.095-6.5 3.094-6.5 4.406-4.405 4.405-4.406 6.5-3.094 6.5-3.095h36l6.503 3.082 6.503 3.082 4.68 4.68 4.68 4.68 2.717 5.738 2.716 5.738.484 6.737.484 6.737-1.2 1.445-1.2 1.446-14.34 5.71-14.342 5.71-1.592-.61-1.593-.612v-16.663l-1.2-1.2-1.2-1.2h-20.649l-.976 2.565-.975 2.565v84.74l.975 2.565.976 2.565h20.649l1.2-1.2 1.2-1.2v-17.355l-1.27-1.054-1.27-1.053-4.48-.319-4.48-.319v-33l21.373-.27 21.373-.27 1.377 1.142 1.377 1.143v57.437l-1.438 4.78-1.439 4.78-3.569 5.374-3.568 5.375-4.743 3.5-4.743 3.5-6.355 2.005-6.356 2.004-14.644-.054zm109.905-.014-23.55-.066-4.214-1.317-4.214-1.317-4.42-2.59-4.42-2.591-4.562-5.074-4.562-5.074-2.304-5.702-2.304-5.702-.293-50.306-.294-50.306 1.579-6.16 1.578-6.161 3.035-4.73 3.036-4.731 4.06-3.668 4.06-3.667 5.62-2.636 5.62-2.635 25.065-.324 25.066-.324 1.091 1.324 1.091 1.324 5.751 14.388 5.752 14.387-1.017 1.613-1.016 1.612-27.392.5-27.392.5v29l13.434.28 13.434.28 1.316 1.093 1.316 1.092v30.51l-1.316 1.093-1.316 1.092-13.434.28-13.434.28v29l27.392.5 27.392.5 1.063 1.687 1.063 1.686-5.73 14.388-5.728 14.387-1.176 1.176-1.176 1.176-23.55-.067zM491.73 517.38l-42.004.29-1.566-1.29-1.567-1.29-3.43-5.847-3.429-5.848-6.53-6.152-6.529-6.153-5.146-2.772-5.146-2.771-7.734-1.979-7.735-1.978-7.09.016-7.09.016-5.739 1.35-5.738 1.35-1.03-1.241-1.031-1.242.269-22.874.27-22.875h161.353l2.761 2.062 2.762 2.062 2.061 2.762 2.062 2.762v61.707l-2.104 2.823-2.105 2.822-3.395 2-3.396 2zm370.504-1.057-32.5.232-4-1.435-4-1.434-2.743-3.252-2.743-3.251-.547-3.046-.547-3.047.29-83.677.29-83.677 2.062-2.76 2.062-2.762 2.761-2.062 2.762-2.062h70.706l2.762 2.062 2.762 2.062 2.061 2.761 2.062 2.762v172.707l-2.104 2.823-2.105 2.823-3.395 2-3.396 2zm-759.183-.945-1.45.288-2.805-2.206-2.804-2.205-1.379-3.3-1.379-3.3V448.72l1.064-2.816 1.063-2.815 2.624-2.75 2.623-2.75h2.368l.616 6.75.616 6.75.147 32 .147 32zm5.683-108.842-3-.024-3.05-1.328-3.049-1.329-2.7-3.21-2.701-3.209-.545-2.173-.545-2.173.295-29.178.295-29.18 2.105-2.82 2.104-2.822 3.396-2 3.395-2h68l3.171 1.735 3.172 1.735 2.321 3.26 2.322 3.261.357 7.065.357 7.064-6.595 4.841-6.595 4.842-4.255 5.495-4.255 5.495-2.5 4.572-2.5 4.572-3.5.88-3.5.88-6.675 1.907-6.676 1.909-7.5 5.016-7.5 5.017-4.311 5.227-4.31 5.227-1.014.735-1.014.735-3-.024zm285.487-.126-20.514.32-.736-.737-.737-.736V393.01l-1.538-5.96-1.539-5.96-2.81-6-2.81-6-4.211-5.297-4.21-5.295-6.191-4.575-6.19-4.575-4.353-2.128-4.352-2.129.417-5.762.416-5.762 3.345-3.451 3.345-3.451 5.314-1.103 5.313-1.103 30.777.315 30.777.315 3.5 2.181 3.5 2.181 2 3.32 2 3.318v59l-1.735 3.171-1.735 3.172-3.265 2.328-3.265 2.33zm106.691-.09-34.178.232-3.05-1.349-3.049-1.348-2.66-3.162-2.661-3.162-.595-3.22-.595-3.22.305-28.18.305-28.178 2.105-2.822 2.104-2.82 3.396-2 3.395-2h68l3.396 2 3.395 2 2.105 2.823 2.104 2.823v61.707l-2.062 2.761-2.061 2.762-2.76 2.062-2.76 2.061zm263.822.117-11 .348-6.3-6-6.3-6-6.7-3.476-6.7-3.476-3.902-1.25-3.902-1.248-5.085-.622-5.085-.623-4.134-6.319-4.133-6.319-3.13-3.228-3.129-3.229v-28.536l1.122-2.184 1.122-2.185 2.527-2.71 2.527-2.71 5.324-1.105 5.324-1.105 30.777.315 30.777.315 3.5 2.181 3.5 2.181 2 3.32 2 3.318v59l-1.735 3.171-1.735 3.172-3.265 2.327-3.265 2.328-11 .349zm-188.941-15.847h-.52l-.598-2.379-.597-2.38.328-24.87.328-24.87 2.181-3.5 2.181-3.5 3.32-2 3.318-2 30.777-.316 30.777-.315 5.422 1.125 5.423 1.126 3.036 3.458 3.036 3.458.57 2.273.571 2.274-.306 5.958-.306 5.958-6.5-.322-6.5-.322-7.5 1.558-7.5 1.558-7.007 3.45-7.008 3.448-6.157 5.572-6.157 5.571-4.1 6.494-4.102 6.493h-6.18l-6.085 1.577-6.084 1.577-3.77 1.923-3.77 1.923zm445.005-74h-15.319l-1.15-1.385-1.15-1.386.278-66.864.277-66.865 2.821-6.104 2.822-6.105 5.178-5.097 5.18-5.097 6-2.798 6-2.799h36l6.724 3.186 6.725 3.186 4.468 4.597 4.468 4.598 2.807 5.717 2.807 5.716v137h-33l-.247-11-.246-11-.53-2.282-.531-2.283-11.223.283-11.223.282-.5 12-.5 12-.809 1.25-.809 1.25zm28.705-62h10.331l1.2-1.2 1.2-1.2V188.834l-1.396-1.158-1.396-1.159-10.354.286-10.354.286-.264 32.492-.264 32.492.483 1.258.482 1.258zm103.258 61.724-17.027.225-4.214-1.358-4.214-1.358-4.42-2.59-4.42-2.591-4.562-5.074-4.562-5.074-2.304-5.702-2.304-5.702-.284-65.752-.284-65.751 1.07-1.999 1.069-1.998h30.529l1.2 1.2 1.2 1.2.015 62.55.015 62.55.816 1.286.816 1.285 10.919-.285 10.919-.286.257-63.406.258-63.407 1.115-1.343 1.114-1.344H1195.988l1.163 1.402 1.162 1.4-.29 66.35-.29 66.348-2.321 5.747-2.32 5.747-5.008 5.479-5.008 5.48-6.645 3.273-6.646 3.274-17.026.224zm100.037.276h-15.319l-1.115-1.343-1.115-1.344-.257-63.406-.258-63.407-12.935-.28-12.935-.282-1.315-1.091-1.315-1.092V153.99l1.2-1.2 1.2-1.2h88.2l1.2 1.2 1.2 1.2v30.355l-1.315 1.092-1.314 1.09-12.936.282-12.935.281-.5 63.5-.5 63.5-.809 1.25-.809 1.25zm102.963-.276-17.027.225-4-1.31-4-1.31-4.097-2.106-4.096-2.107-5.083-5.561-5.083-5.561-2.32-5.747-2.32-5.747v-106l2.244-5.545 2.245-5.544 5.048-5.664 5.048-5.664 6.685-3.291 6.685-3.292 15.664-.352 15.664-.353 5.858 1.684 5.858 1.684 4.79 3.048 4.788 3.048 3.34 4.12 3.34 4.121 2.03 4.032 2.03 4.032 1.091 5.902 1.091 5.902v90.265l-1.087 5.88-1.087 5.879-2.037 4.334-2.037 4.334-4.441 4.94-4.441 4.94-6.659 3.28-6.658 3.28zm-1.665-34.724h10.924l.607-1.581.607-1.582v-89.592l-1.396-1.158-1.396-1.159-10.354.286-10.354.286-.26 46-.261 46 .48 1.25.478 1.25zm71.223 35h-14.752l-.666-.666-.667-.667V182.952l1.511-5.088 1.511-5.089 3.323-4.843 3.322-4.843 4.917-3.772 4.916-3.773 6.773-2.081 6.772-2.082 15.728.376 15.727.376 5.66 2.632 5.66 2.63 2.727-1.414 2.728-1.416 5.47-1.59 5.472-1.59 15.664.352 15.664.352 6.582 3.242 6.583 3.24 4.715 5.042 4.715 5.04 2.68 5.718 2.68 5.718.284 66.857.284 66.857-1.156 1.393-1.157 1.393h-30.637l-.809-1.25-.809-1.25-.5-63.5-.5-63.5-10.354-.286-10.354-.286-1.396 1.159-1.396 1.158v125.51l-1.385 1.15-1.384 1.149-15.366-.277-15.365-.277-.5-63.5-.5-63.5-.809-1.25-.809-1.25h-20.482l-1.2 1.2-1.2 1.2v126.386l-1.582.607-1.582.607zm161.479 0h-15.319l-1.15-1.385-1.15-1.386.278-66.886.277-66.887 3.241-6.583 3.242-6.583 5.04-4.715 5.041-4.715 5.718-2.68 5.718-2.68h36l6.725 3.186 6.725 3.186 4.467 4.596 4.468 4.597 2.807 5.718 2.808 5.717v137h-33l-.246-11-.247-11-.53-2.282-.531-2.283-11.223.283-11.223.282-.5 12-.5 12-.809 1.25-.809 1.25zm28.705-62h10.331l1.2-1.2 1.2-1.2V188.834l-1.396-1.158-1.396-1.159-10.354.286-10.354.286-.264 32.492-.264 32.492.483 1.258.482 1.258zm102.705 61.775-15.525.274-1.225-1.224-1.224-1.225V189.753l-.607-1.582-.607-1.582h-25.643l-1.571-1.571-1.572-1.572v-27.988l1.035-1.934 1.036-1.935h89.529l1.2 1.2 1.2 1.2v29.457l-1.571 1.572-1.572 1.571H1736.351l-.809 1.25-.809 1.25-.5 63.5-.5 63.5zm72 0-15.525.274-1.225-1.224-1.224-1.225v-160.2l1.2-1.2 1.2-1.2 14.55.016 14.55.015 1.256.797 1.256.798-.256 81.437-.256 81.437-15.526.275zm72.553-.05-17.027.224-4.214-1.358-4.214-1.358-4.343-2.546-4.344-2.545-3.982-4.321-3.983-4.32-2.195-4.536-2.195-4.535-1.015-5.351-1.015-5.352v-92.628l1.109-5.3 1.109-5.299 3.068-5.82 3.068-5.822 4.573-4.069 4.573-4.069 5.5-2.61 5.5-2.61h37l5.768 2.703 5.769 2.703 5.27 5.297 5.27 5.297 2.352 5 2.351 5 1.061 7.264 1.061 7.263-1.45 1.411-1.452 1.412-14.387 5.733-14.387 5.734-1.613-1.012-1.613-1.013-.5-8.896-.5-8.896-10.354-.286-10.354-.286-1.396 1.159-1.396 1.158.015 45.128.015 45.127.816 1.286.816 1.285 10.919-.285 10.919-.286.5-8.896.5-8.896 1.588-.997 1.588-.997 14.412 5.765 14.412 5.765 1.327 1.628 1.328 1.628-.643 5.887-.643 5.886-2.005 5.36-2.006 5.36-5.007 5.48-5.008 5.48-6.645 3.273-6.646 3.274-17.026.224zM139.91 294.358l-34.178.27-4.076-2.039-4.076-2.038-2.174-3.867-2.174-3.868v-57.728l1.749-3.48 1.748-3.48 3.398-2.27 3.398-2.27h70.408l3.297 2.25 3.296 2.25 1.878 3.5 1.879 3.5-.277 29.679-.277 29.679-2.062 2.76-2.062 2.759-2.76 2.062-2.76 2.061zm119.322.175-33.5-.023-3-1.333-3-1.334-2.274-2.467-2.274-2.467-.976-3.404-.976-3.403V226.22l2.071-4.278 2.071-4.278 3.297-2.038 3.297-2.038 34.882.004 34.882.004 3.26 1.987 3.258 1.988 1.988 3.259 1.987 3.259v59.031l-1.854 3.484-1.854 3.485-3.896 2.233-3.896 2.234-33.5-.023zm121.178-.17-34.678.273-3.5-1.875-3.5-1.876-2.25-3.296-2.25-3.296v-60.205l1.987-3.259 1.987-3.259 3.26-2.007 3.259-2.008 35.5.267 35.5.266 2.665 2 2.666 2 1.834 3 1.835 3v59l-2 3.396-2 3.395-2.822 2.105-2.822 2.104-34.678.274zm120.5-.044-34.178.23-3-1.353-3-1.353-2.183-2.377-2.184-2.378-1.066-2.815-1.067-2.815v-56.4l1.852-3.485 1.851-3.485 3.297-2.25 3.296-2.25h70.408l3.297 2.25 3.296 2.25 1.878 3.5 1.879 3.5-.277 29.679-.277 29.679-2.062 2.76-2.061 2.759-2.76 2.061-2.76 2.062zm119.338.23-33.516-.039-3.085-1.343-3.084-1.343-2.162-2.748-2.162-2.749-1.074-3.988-1.074-3.989.32-27.13.321-27.132 2.266-3.643 2.266-3.644 3.385-1.606 3.385-1.607 34.35.004 34.348.004 3.26 1.987 3.258 1.988 1.988 3.259 1.987 3.259v60.204l-2.25 3.296-2.25 3.297-3.485 1.851-3.484 1.852-33.516-.04zm121.162-.187-34.678.274-3.5-1.875-3.5-1.876-2.25-3.296-2.25-3.296v-60.205l1.987-3.259 1.987-3.259 3.26-1.987 3.259-1.987 34.349-.004 34.348-.004 3.386 1.606 3.385 1.607 2.266 3.643 2.266 3.644v59l-2 3.395-2 3.396-2.822 2.104-2.822 2.105-34.678.274zm120.5-.043-34.178.23-3-1.353-3-1.353-2.183-2.377-2.184-2.378-1.066-2.815-1.067-2.815v-56.4l1.852-3.485 1.851-3.485 3.297-2.25 3.296-2.25h70.408l3.297 2.25 3.296 2.25 1.878 3.5 1.879 3.5-.277 29.679-.277 29.679-2.062 2.76-2.061 2.759-2.76 2.061-2.76 2.062z"/></svg>
